<?xml version="1.0" standalone="no"?><!DOCTYPE svg PUBLIC "-//W3C//DTD SVG 1.1//EN" "http://www.w3.org/Graphics/SVG/1.1/DTD/svg11.dtd"><svg t="1749713341693" class="icon" viewBox="0 0 1024 1024" version="1.1" xmlns="http://www.w3.org/2000/svg" p-id="5099" xmlns:xlink="http://www.w3.org/1999/xlink" width="200" height="200"><path d="M512 0C230.4 0 0 230.4 0 512s230.4 512 512 512 512-230.4 512-512S793.6 0 512 0z m12.8 153.6c195.197156 0 195.197156 147.205689 195.197156 230.4 0 83.205689-76.8 236.805689-195.197156 240.002844-115.2 0-195.197156-153.6-195.197156-240.002844 0-83.205689 0-230.4 195.197156-230.4zM512 995.202844c-147.205689 0-281.6-67.197156-371.2-172.805688 12.8-31.994311 28.797156-67.197156 51.2-86.402845 48.002844-38.388622 192-102.4 192-102.4l89.6 172.805689 15.997156-41.597156-25.6-51.2 51.2-51.2 51.2 51.2-22.391467 54.397156 12.788622 41.597156 92.808533-169.597156s143.997156 64 192 102.4c22.402844 15.997156 38.4 44.805689 48.002845 70.405689C803.202844 924.785778 665.6 995.191467 512 995.191467z" fill="#B8B8BF" p-id="5100"></path></svg>